<?xml version="1.0" encoding="UTF-8" standalone="no"?>
<svg width="153px" height="129px" viewBox="0 0 153 129" version="1.1" xmlns="http://www.w3.org/2000/svg" xmlns:xlink="http://www.w3.org/1999/xlink">
    <!-- Generator: Sketch 49.1 (51147) - http://www.bohemiancoding.com/sketch -->
    <title>Group 4</title>
    <desc>Created with Sketch.</desc>
    <defs></defs>
    <g id="Page-1" stroke="none" stroke-width="1" fill="none" fill-rule="evenodd" opacity="0.147446362">
        <g id="Artboard-2" transform="translate(-43.000000, -1688.000000)">
            <g id="Group-4" transform="translate(43.000000, 1688.000000)">
                <path d="M82.4962717,60.637 C82.5715941,61.087 82.2020437,61.505 81.6724332,61.569 C81.1416458,61.634 80.6496965,61.32 80.5743741,60.87 C78.6630687,49.496 74.03545,38.165 67.0904911,27.932 C60.3797378,18.045 51.504643,9.18 40.8265187,2.292 C40.4004765,2.017 40.3180926,1.501 40.6405666,1.14 C40.9630405,0.778 41.5703272,0.707 41.9963694,0.982 C52.8863379,8.007 61.932085,17.041 68.7687679,27.113 C75.8408333,37.532 80.5508359,49.065 82.4962717,60.637" id="Fill-83" fill="#53514E"></path>
                <polygon id="Fill-132" fill="#E17A3C" opacity="0.677180504" points="67.3776577 122.279 147.992612 122.279 147.992612 49.784 67.3776577 49.784"></polygon>
                <polygon id="Fill-133" fill="#EBA644" opacity="0.677180504" points="65.2462697 56.596 150.124 56.596 150.124 45.934 65.2462697 45.934"></polygon>
                <polygon id="Fill-134" fill="#8DA0A6" opacity="0.677180504" points="61.592 122.596 153 122.596 153 117.836 61.592 117.836"></polygon>
                <path d="M100.322,121.858 C100.77,121.858 101.136,121.5 101.136,121.062 C101.136,120.624 100.77,120.266 100.322,120.266 C99.873,120.266 99.507,120.624 99.507,121.062 C99.507,121.5 99.873,121.858 100.322,121.858" id="Fill-147" fill="#B2C2B1" opacity="0.677180504"></path>
                <path d="M117.592,121.636 C118.041,121.636 118.407,121.278 118.407,120.84 C118.407,120.401 118.041,120.044 117.592,120.044 C117.144,120.044 116.778,120.401 116.778,120.84 C116.778,121.278 117.144,121.636 117.592,121.636" id="Fill-148" fill="#B2C2B1" opacity="0.677180504"></path>
                <polyline id="Fill-154" fill="#D97330" opacity="0.677180504" points="147.992612 117.836 147.992612 56.596 130.393067 56.596 121.329666 117.836 147.992612 117.836"></polyline>
                <polygon id="Fill-155" fill="#E49E3C" opacity="0.677180504" points="130.393067 56.596 150.124 56.596 150.124 45.934 130.393067 45.934"></polygon>
                <path d="M41.593,1.938 C41.593,1.938 35.528,8.713 28.753,12.756 C21.978,16.799 22.743,12.865 15.094,14.722 C7.445,16.58 0.67,29.037 0.67,29.037 C0.67,29.037 13.509,22.918 19.956,22.973 C26.403,23.027 29.135,25.104 36.62,24.557 C44.105,24.011 55.907,14.658 55.907,14.658 C55.907,14.658 51.099,14.722 46.4,12.482 C41.701,10.242 41.593,1.938 41.593,1.938" id="Fill-167" fill="#2285F7"></path>
                <path d="M42.466,0.988 C42.343,0.988 41.052,1.766 40.868,2.258 C40.683,2.75 41.011,3.378 41.53,3.399 C42.049,3.419 43.285,2.456 43.374,2.046 C43.463,1.637 42.466,0.988 42.466,0.988" id="Fill-168" fill="#E07B2D"></path>
                <path d="M53.147,15.098 C53.312,14.975 54.308,13.653 55.148,13.747 C55.989,13.841 56.453,14.333 56.193,14.893 C55.934,15.453 54.827,16.122 53.98,16.176 C53.134,16.231 53.147,15.098 53.147,15.098" id="Fill-169" fill="#E07B2D"></path>
                <path d="M150.124,123.496 C107.482,124.099 68.558,126.827 26.391,128.559 C15.541,129.005 18.367,128.89 7.316,128.928 C53.725,124.826 103.747,120.33 150.124,123.496" id="Fill-174" fill="#FFFFFE" opacity="0.677180504"></path>
                <text id="Delivery-Service" font-family="BanglaSangamMN-Bold, Bangla Sangam MN" font-size="12" font-weight="bold" letter-spacing="1.41428578" fill="#041647">
                    <tspan x="81" y="84">Delivery</tspan>
                    <tspan x="81" y="100">Service</tspan>
                </text>
            </g>
        </g>
    </g>
</svg>