<?xml version="1.0" encoding="UTF-8" standalone="no"?>
<svg width="125px" height="168px" viewBox="0 0 125 168" version="1.1" xmlns="http://www.w3.org/2000/svg" xmlns:xlink="http://www.w3.org/1999/xlink">
    <!-- Generator: Sketch 49.1 (51147) - http://www.bohemiancoding.com/sketch -->
    <title>Group 3</title>
    <desc>Created with Sketch.</desc>
    <defs></defs>
    <g id="Page-1" stroke="none" stroke-width="1" fill="none" fill-rule="evenodd">
        <g id="Artboard-2" transform="translate(-1095.000000, -1138.000000)">
            <g id="Group-3" transform="translate(1095.000000, 1138.000000)">
                <path d="M75.208,33.075 C75.154,32.747 74.659,32.629 74.45,32.875 C72.627,35.02 72.292,38.216 71.645,40.894 C70.888,44.025 69.932,47.22 69.709,50.441 C69.647,51.354 70.914,51.386 71.198,50.643 C72.398,47.511 72.968,44.081 73.814,40.834 C74.474,38.305 75.632,35.694 75.208,33.075" id="Fill-39" fill="#4D382C"></path>
                <path d="M106.953,38.65 C103.122,33.483 95.89,31.026 89.015,30.56 C79.997,29.947 75.26,32.66 74.261,33.76 C73.206,32.198 64.633,26.988 58.051,25.597 C52.324,24.39 45.212,25.673 41.587,27.602 C41.617,27.083 41.668,26.557 41.74,26.038 C43.505,12.521 57.728,-0.888 79.319,0.879 C96.764,2.298 107.16,18.548 107.732,31.942 C107.818,34.048 107.359,36.76 106.953,38.65" id="Fill-40" fill="#2285F7"></path>
                <path d="M106.953,38.65 C103.122,33.483 95.89,31.026 89.015,30.56 C79.997,29.947 75.26,32.66 74.261,33.76 C73.206,32.198 64.633,26.988 58.051,25.597 C52.324,24.39 45.212,25.673 41.587,27.602 C41.587,27.602 44.721,19.716 51.258,18.561 C57.796,17.399 62.808,20.137 63.93,22.944 C63.93,22.944 68.725,18.667 75.606,18.137 C82.488,17.606 89.774,22.507 90.303,26.621 C90.303,26.621 95.854,21.955 100.515,23.292 C105.176,24.622 107.353,33.117 106.953,38.65" id="Fill-41" fill="#09294C"></path>
                <path d="M106.398,38.607 C99.931,40.145 93.507,41.878 87.118,43.712 C82.4,45.066 77.34,46.2 72.724,48.073 C79.838,41.966 85.889,33.526 91.26,26.088 C91.832,25.297 90.539,24.579 89.965,25.331 C86.474,29.91 82.94,34.432 79.164,38.78 C76.497,41.851 73.476,44.696 70.912,47.858 C70.901,47.853 70.89,47.85 70.879,47.844 C70.309,43.724 69.378,39.663 68.368,35.627 C67.247,31.154 66.272,26.273 63.937,22.262 C63.598,21.68 62.838,22.102 62.923,22.69 C63.582,27.229 65.526,31.646 66.753,36.072 C67.809,39.878 68.619,43.739 69.542,47.576 C66.618,44.319 63.027,41.759 59.477,39.186 C53.823,35.09 48.233,30.443 42.081,27.129 C41.519,26.826 40.889,27.571 41.381,28.037 C49.675,35.893 60.275,40.933 68.267,49.126 C61.009,52.957 54.115,57.83 47.238,62.236 C40.522,66.538 34.035,71.073 28.768,77.125 C27.636,78.426 29.804,79.99 30.925,78.703 C41.539,66.518 57.128,60.382 69.792,50.729 C69.996,50.907 70.24,50.954 70.479,50.908 C79.4,61.498 86.523,73.037 92.818,85.373 C93.433,86.577 95.278,85.753 94.738,84.501 C89.351,72.014 81.634,60.402 72.875,50.004 C78.156,48.85 83.384,46.773 88.542,45.303 C94.632,43.567 100.759,41.977 106.888,40.385 C108.038,40.086 107.552,38.332 106.398,38.607" id="Fill-42" fill="#684A38"></path>
                <path d="M0.881,139.761 C18.15,147.676 45.166,159.219 63.457,167.569 C69.409,166.739 75.125,165.698 80.635,164.547 C85.93,163.447 91.026,162.237 95.94,160.993 C103.977,158.973 111.529,156.879 118.66,155.04 C99.377,147.151 71.51,137.062 50.888,129.568 C36.033,129.933 13.71,135.088 0.881,139.761" id="Fill-43" fill="#9E6E45"></path>
                <path d="M15.354,136.056 C19.542,137.834 23.422,139.526 27.452,141.64 C31.173,140.646 34.859,138.696 38.581,137.702 C35.836,136.166 32.665,134.309 29.921,132.773 C24.797,133.263 20.308,134.661 15.354,136.056" id="Fill-44" fill="#795437"></path>
                <path d="M0.881,139.761 C5.609,138.514 10.453,137.253 15.354,136.056 C20.165,134.874 25.041,133.763 29.921,132.773 C36.951,131.359 43.986,130.205 50.888,129.568 C53.821,110.123 56.856,91.421 57.236,70.13 C50.726,71.509 43.994,73.09 37.217,74.708 C32.178,75.907 27.112,77.136 22.1,78.313 C17.378,79.416 12.708,80.484 8.154,81.451 C6.361,100.708 2.665,120.503 0.881,139.761" id="Fill-45" fill="#C18E59"></path>
                <path d="M50.891,129.57 C53.282,109.007 55.071,91.662 57.237,70.126 C79.889,78.717 102.027,88.113 124.678,96.704 C124.959,115.732 120.812,138.928 118.662,155.038 C93.281,146.883 75.353,138.689 50.891,129.57" id="Fill-46" fill="#F7C891"></path>
                <path d="M21.195,86.936 C22.859,86.527 31.458,85.396 36.066,83.91 C36.455,80.843 36.836,77.775 37.217,74.708 C32.178,75.907 27.112,77.136 22.1,78.313 C21.817,80.98 21.567,83.399 21.195,86.936" id="Fill-47" fill="#A7794E"></path>
                <path d="M15.354,136.056 C20.165,134.874 25.041,133.763 29.921,132.773 C30.367,130.01 30.813,127.248 31.259,124.493 C26.307,124.935 21.509,125.521 16.557,125.955 C16.026,129.072 15.606,132.668 15.354,136.056" id="Fill-48" fill="#A7794E"></path>
                <path d="M72.481,160.421 C74.521,161.617 78.476,163.187 80.635,164.547 C85.93,163.447 91.026,162.237 95.94,160.993 C92.518,159.51 87.306,157.843 83.884,156.36 C78.979,157.561 76.149,159.388 72.481,160.421" id="Fill-49" fill="#795437"></path>
                <path d="M109.636,143.93 C110.659,142.5 112.368,140.886 113.888,139.617 C114.67,141.584 115.152,143.494 115.331,145.495 C114.817,145.441 114.323,145.364 113.844,145.268 C113.595,146.354 113.347,147.441 113.099,148.528 C112.112,148.206 111.125,147.883 110.137,147.561 C110.418,146.552 110.846,145.535 111.197,144.522 C110.676,144.338 110.158,144.141 109.636,143.93" id="Fill-50" fill="#795437"></path>
                <path d="M103.953,136.43 C103.505,137.371 103.008,138.579 102.979,139.621 C102.95,140.663 103.468,141.796 104.447,142.153 C105.506,142.539 106.716,141.876 107.326,140.929 C107.935,139.981 108.086,138.82 108.223,137.702 C106.915,137.338 105.262,136.793 103.953,136.43" id="Fill-51" fill="#795437"></path>
                <path d="M102.387,144.383 C102.755,144.494 103.124,144.606 103.493,144.718 C103.74,143.748 103.987,142.778 104.235,141.809 C104.362,141.31 105.109,141.604 104.983,142.1 C104.741,143.05 104.499,143.999 104.257,144.949 C104.56,145.04 104.862,145.132 105.166,145.224 C105.66,145.373 105.367,146.121 104.874,145.972 C103.947,145.691 103.021,145.411 102.095,145.131 C101.601,144.981 101.894,144.234 102.387,144.383" id="Fill-52" fill="#795437"></path>
                <path d="M26.563,132.015 C36.747,138.312 47.287,143.614 58.201,148.525 C58.225,148.537 58.25,148.547 58.273,148.558 C58.966,148.31 59.653,148.062 60.327,147.815 C67.308,145.256 75.177,142.017 82.625,141.377 C83.355,141.314 83.761,142.34 83.018,142.662 C76.069,145.674 68.342,147.134 61.202,149.744 C61.153,149.761 61.105,149.782 61.056,149.8 C70.259,153.895 79.591,157.902 88.243,163.058 C88.974,163.493 88.29,164.767 87.52,164.378 C77.983,159.565 68.312,155.142 58.579,150.764 C52.368,153.309 46.307,156.617 39.975,158.566 C39.175,158.812 38.29,157.775 39.123,157.191 C43.925,153.822 49.966,151.539 55.716,149.474 C55.658,149.448 55.6,149.421 55.542,149.395 C45.243,144.776 34.746,140.004 25.436,133.554 C24.418,132.848 25.53,131.376 26.563,132.015" id="Fill-53" fill="#4D382C"></path>
                <path d="M84.454,127.312 C85.542,122.394 86.563,117.46 87.521,112.514 C88.479,107.568 89.373,102.61 90.205,97.642 C90.996,92.908 91.404,87.949 92.817,83.355 C93.061,82.562 94.11,82.972 94.123,83.671 C94.211,88.906 92.972,94.283 92.115,99.435 C91.288,104.403 90.391,109.36 89.428,114.304 C88.465,119.248 87.437,124.179 86.344,129.096 C85.335,133.634 84.753,139.025 82.663,143.197 C82.265,143.991 81.133,143.739 81.153,142.832 C81.265,137.708 83.343,132.333 84.454,127.312" id="Fill-54" fill="#5E4434"></path>
                <path d="M30.274,76.565 C30.388,76.16 31.099,76.224 31.117,76.652 C31.51,85.752 29.718,95.145 29.033,104.223 C28.678,108.928 28.371,113.637 28.114,118.349 C27.845,123.262 28.052,128.404 27.262,133.256 C27.128,134.074 25.808,134.226 25.721,133.305 C24.85,124.05 26.339,114.064 27.027,104.807 C27.714,95.556 27.768,85.532 30.274,76.565" id="Fill-55" fill="#543E2F"></path>
                <path d="M41.696,122.16 C42.727,121.629 43.973,121.772 45.113,121.71 C46.414,121.64 47.78,121.439 49.069,121.658 C49.388,121.712 49.415,122.208 49.103,122.296 C47.844,122.651 46.465,122.597 45.165,122.666 C44.023,122.726 42.8,123 41.719,122.582 C41.555,122.519 41.54,122.24 41.696,122.16" id="Fill-56" fill="#805F3E"></path>
                <path d="M35.715,122.534 C36.454,122.288 37.23,122.242 38.003,122.198 C38.675,122.159 39.419,122.006 40.04,122.302 C40.163,122.36 40.173,122.546 40.057,122.617 C39.471,122.977 38.714,122.904 38.042,122.937 C37.269,122.975 36.493,123.012 35.732,122.846 C35.576,122.812 35.564,122.584 35.715,122.534" id="Fill-57" fill="#805F3E"></path>
                <path d="M47.124,124.148 C47.507,124.121 47.893,124.103 48.277,124.092 C48.56,124.084 48.817,124.072 49.021,124.239 C49.042,124.242 49.063,124.245 49.083,124.248 C49.356,124.283 49.38,124.728 49.113,124.792 C49.092,124.797 49.071,124.802 49.051,124.807 C48.867,124.995 48.609,125.01 48.327,125.033 C47.944,125.062 47.558,125.086 47.174,125.099 C46.562,125.121 46.511,124.192 47.124,124.148" id="Fill-58" fill="#805F3E"></path>
                <path d="M36.286,125.03 C37.827,124.696 39.377,124.574 40.948,124.472 C42.495,124.372 44.14,124.111 45.665,124.433 C45.934,124.49 45.956,124.886 45.693,124.971 C44.211,125.454 42.548,125.369 40.999,125.434 C39.426,125.5 37.872,125.543 36.305,125.375 C36.132,125.357 36.117,125.067 36.286,125.03" id="Fill-59" fill="#805F3E"></path>
                <path d="M43.506,126.806 C45.279,126.836 47.146,126.549 48.9,126.733 C49.24,126.769 49.245,127.303 48.935,127.391 C47.268,127.864 45.27,127.715 43.553,127.674 C42.998,127.661 42.945,126.796 43.506,126.806" id="Fill-60" fill="#805F3E"></path>
                <path d="M40.521,126.83 C40.737,126.822 40.959,126.801 41.175,126.808 C41.272,126.811 41.38,126.822 41.476,126.841 C41.595,126.865 41.703,126.933 41.822,126.947 C42.104,126.979 42.129,127.45 41.852,127.512 C41.735,127.538 41.634,127.617 41.52,127.653 C41.425,127.684 41.322,127.706 41.224,127.719 C41.009,127.748 40.788,127.75 40.571,127.767 C39.969,127.811 39.916,126.85 40.521,126.83" id="Fill-61" fill="#805F3E"></path>
                <path d="M90.303,26.621 C93.19,18.03 90.533,1.206 78.738,0.794 C66.944,0.381 63.93,22.944 63.93,22.944 C63.93,22.944 68.725,18.667 75.606,18.137 C82.488,17.606 89.774,22.507 90.303,26.621" id="Fill-62" fill="#DBBFB8"></path>
            </g>
        </g>
    </g>
</svg>