<?xml version="1.0" encoding="UTF-8" standalone="no"?>
<svg width="380px" height="186px" viewBox="0 0 380 186" version="1.1" xmlns="http://www.w3.org/2000/svg" xmlns:xlink="http://www.w3.org/1999/xlink">
    <!-- Generator: Sketch 49.1 (51147) - http://www.bohemiancoding.com/sketch -->
    <title>Group 7</title>
    <desc>Created with Sketch.</desc>
    <defs></defs>
    <g id="Page-1" stroke="none" stroke-width="1" fill="none" fill-rule="evenodd">
        <g id="Artboard-2" transform="translate(-255.000000, -2116.000000)">
            <g id="Group-7" transform="translate(255.000000, 2116.000000)">
                <path d="M281,43.3302398 C281,43.3302398 281.054025,46.3884161 281.6938,46.7937756 C282.332863,47.1991351 282.746584,47.0234249 283.253427,46.1195384 C283.829224,45.091429 283.976372,43.2967322 283.999831,42.2114147 C284.012626,41.5976546 283.296079,39.2210708 283.113388,39.0780508 C282.449444,38.5590925 282.814827,40.7624178 282.853213,41.7210605 C282.891599,42.6788858 282.632846,43.1937578 282.226945,43.0850626 C281.820333,42.9755502 281.88431,41.471797 281.455661,41.1694119 C281.025591,40.867844 281,43.3302398 281,43.3302398" id="Fill-4" fill="#EA8F84"></path>
                <path d="M304,50.9027276 L304.178964,50.9414315 C305.539246,51.2336082 306.887755,50.40413 307.190738,49.0881966 L308,45.5684164 L305.357928,45 L304,50.9027276" id="Fill-5" fill="#3A5264"></path>
                <polyline id="Fill-6" fill="#F1B4A7" points="302 54 307 54 305.558041 49 302.14963 49.4225908 302 54"></polyline>
                <path d="M302.122709,49.4661903 L305.361018,49 L306,51.5705821 C305.274972,52.5221331 304.199027,54 303.020576,54 C302.647213,54 302.306023,53.8771349 302,53.6505751 L302.122709,49.4661903" id="Fill-7" fill="#EA8F84"></path>
                <path d="M301.855939,52.8927126 C304.164111,53.4272715 306.450424,51.9121258 306.96452,49.508297 L308,44.660168 L300.831793,43 C300.831793,43 300.023812,46.7849132 300.000333,49.4602373 C299.982522,51.4677843 300.679588,52.6203742 301.855939,52.8927126" id="Fill-8" fill="#F1B4A7"></path>
                <path d="M306.058017,48.3069044 C305.882886,49.1294931 306.117562,49.8838993 306.58271,49.9916716 C307.046458,50.0994439 307.786913,49.1404903 307.962045,48.3179016 C308.136476,47.4953129 307.679033,47.1206758 307.215285,47.0129034 C306.751537,46.9051311 306.232448,47.4843157 306.058017,48.3069044" id="Fill-9" fill="#F1B4A7"></path>
                <path d="M300.00793,44.2535002 C299.969544,43.6818442 300.070817,43.1094379 300.305215,42.5782929 C300.886717,41.2609333 302.491566,40.6945287 303.953489,41.1619063 C304.102948,41.2091692 304.260574,41.2511806 304.428001,41.2849398 L306.869168,41.7823256 C308.335991,42.0816573 309.260515,43.4162717 308.934645,44.7636395 L308.808054,45.2865322 L307.756939,46.0757477 L306.771979,47 L306.675606,46.9804947 C306.210077,46.8852187 305.910342,46.4748566 305.98303,46.0479901 C306.103088,45.3435478 305.721681,44.65561 304.964584,44.5010678 L302.797835,44.058447 C301.479654,43.7891235 300.636802,44.2992627 300.417105,45.2055101 L300.299498,45.9857231 L300.00793,44.2535002" id="Fill-10" fill="#3A5264"></path>
                <path d="M305.996086,43.7215564 C306.151358,45.0899497 301.641603,46.8227477 300.452974,46.9828522 C299.263579,47.1429568 298.17362,46.1639843 298.018348,44.7964248 C297.863842,43.4280314 298.702155,42.189723 299.890784,42.0296184 C301.080943,41.86868 305.84158,42.3539969 305.996086,43.7215564" id="Fill-11" fill="#3A5264"></path>
                <path d="M53.9302125,85.72385 C52.2186304,84.245765 51.0548826,82.2358908 50.6888588,80.0010906 C48.5207479,66.7465244 41.2355109,57 32.5798869,57 C23.4709379,57 15.8781448,67.7964467 14.1721691,82.116198 C13.8205619,85.0683514 12.1634428,87.6967721 9.6429238,89.2624175 C3.70564789,92.9487935 -0.198072979,99.6122254 0.00776540053,107.177771 C0.2985021,117.862558 8.9132788,126.591293 19.5632124,126.985716 C24.4833103,127.168067 29.0277732,125.594388 32.6311463,122.842259 C34.160117,121.675053 36.0735329,121.139248 37.9773376,121.398716 C49.8879312,123.018183 61,113.755249 61,101.180281 C61,95.0004397 58.2592259,89.4632443 53.9302125,85.72385" id="Fill-12" fill="#86E13B"></path>
                <path d="M35.8138737,81 L35.8138737,168 M14,104.0288 L35.8138737,116.934435 L53,106.633614 M25.1432027,90.8062659 L35.8138737,101.227924 L45.2491885,93.9136374" id="Stroke-13" stroke="#4CABD3" stroke-width="1.802"></path>
                <path d="M55.094519,133.440697 C56.8607372,135.206915 58,142 58,142 C58,142 51.2077165,140.860737 49.4406966,139.094519 C47.6752801,137.328301 47.5093213,134.63127 49.0702958,133.070296 C50.6312703,131.509321 53.3291025,131.67528 55.094519,133.440697" id="Fill-14" fill="#86E13B"></path>
                <path d="M15.4414316,134.905504 C17.2068619,133.139272 24,132 24,132 C24,132 22.8607283,138.793138 21.0944963,140.558568 C19.3290661,142.3248 16.6312129,142.49076 15.0702263,140.929774 C13.5092396,139.367985 13.6751997,136.670934 15.4414316,134.905504" id="Fill-15" fill="#86E13B"></path>
                <path d="M74.2702554,122.513455 C72.1514369,124.632213 64,126 64,126 C64,126 65.3670543,117.848793 67.4866438,115.729264 C69.6054622,113.609734 72.842289,113.411582 74.7159166,115.284386 C76.5887733,117.157961 76.3898449,120.393925 74.2702554,122.513455" id="Fill-16" fill="#FFFFFE"></path>
                <path d="M244.479756,132.055122 C243.38586,131.12552 242.641425,129.862543 242.40818,128.457721 C241.021712,120.126561 236.364121,114 230.830438,114 C225.005808,114 220.151543,120.786097 219.06171,129.787213 C218.835779,131.643212 217.77683,133.294859 216.165243,134.278956 C212.369928,136.596551 209.87331,140.78457 210.004967,145.539967 C210.191889,152.256344 215.698753,157.742601 222.508377,157.991029 C225.65353,158.105627 228.558938,157.115921 230.862946,155.38654 C231.839813,154.652474 233.063741,154.315894 234.280355,154.478575 C241.895365,155.497932 249,149.674293 249,141.770269 C249,137.885973 247.247003,134.405574 244.479756,132.055122" id="Fill-17" fill="#86E13B"></path>
                <path d="M232.423902,129 L232.423902,184 M219,143.55854 L232.423902,151.717007 L243,145.204526 M225.857255,135.200146 L232.423902,141.787299 L238.22977,137.164088" id="Stroke-18" stroke="#4CABD3" stroke-width="1.294"></path>
                <path d="M244.256331,161.864054 C245.315969,162.924531 246,167 246,167 C246,167 241.924058,166.31592 240.86442,165.25697 C239.805546,164.197256 239.705537,162.578674 240.641499,161.641881 C241.578989,160.705851 243.196693,160.805104 244.256331,161.864054" id="Fill-19" fill="#86E13B"></path>
                <path d="M219.864914,163.742941 C220.923844,162.684045 225,162 225,162 C225,162 224.316696,166.076024 223.257003,167.135683 C222.197309,168.194579 220.578757,168.29459 219.642745,167.357845 C218.705206,166.4211 218.80522,164.803364 219.864914,163.742941" id="Fill-20" fill="#86E13B"></path>
                <path d="M256.846702,155.675153 C255.434448,157.088007 250,158 250,158 C250,158 250.911316,152.565568 252.323571,151.152713 C253.736642,149.740674 255.894593,149.606894 257.143676,150.856601 C258.392758,152.105493 258.259773,154.262298 256.846702,155.675153" id="Fill-21" fill="#86E13B"></path>
                <path d="M372.930298,94.724133 C371.218737,93.2452301 370.055003,91.2361394 369.688984,89.0005139 C367.520899,75.7458171 360.235751,66 351.580232,66 C342.470593,66 334.878693,76.796553 333.172738,91.1164455 C332.821135,94.068628 331.164036,96.6970745 328.643547,98.261932 C322.707144,101.948344 318.80267,108.612645 319.007705,116.177462 C319.30004,126.863158 327.913911,135.591175 338.563715,135.985602 C343.483754,136.168758 348.028161,134.594261 351.631491,131.842907 C353.160443,130.674887 355.073835,130.13988 356.977617,130.398547 C368.888066,132.018833 380,122.755808 380,110.179913 C380,104.000814 377.258458,98.4635641 372.930298,94.724133" id="Fill-22" fill="#86E13B"></path>
                <path d="M354.813423,90 L354.813423,177 M333,113.028 L354.813423,125.933634 L372,115.632814 M344.142972,99.8062659 L354.813423,110.227124 L364.248542,102.914438" id="Stroke-23" stroke="#4CABD3" stroke-width="1.802"></path>
                <path d="M374.094729,142.441316 C375.860018,144.206605 377,151 377,151 C377,151 370.206605,149.860018 368.441316,148.094729 C366.675226,146.328639 366.509279,143.631804 368.07014,142.07014 C369.631002,140.509279 372.327837,140.675226 374.094729,142.441316" id="Fill-24" fill="#86E13B"></path>
                <path d="M334.440588,144.905481 C336.207631,143.139263 343,142 343,142 C343,142 341.860723,148.793085 340.094482,150.559303 C338.328242,152.32472 335.631979,152.490679 334.070985,150.929704 C332.509189,149.36873 332.67515,146.671699 334.440588,144.905481" id="Fill-25" fill="#86E13B"></path>
                <path d="M149,181.5 C149,183.9852 130.195821,186 107.0004,186 C83.8041791,186 65,183.9852 65,181.5 C65,179.014039 83.8041791,177 107.0004,177 C130.195821,177 149,179.014039 149,181.5" id="Fill-27" fill="#2A2A2A" opacity="0.126224347"></path>
                <path d="M334,181.500855 C334,183.433333 313.62926,185 288.500403,185 C263.371546,185 243,183.433333 243,181.500855 C243,179.566667 263.371546,178 288.500403,178 C313.62926,178 334,179.566667 334,181.500855" id="Fill-28" fill="#2A2A2A" opacity="0.126224347"></path>
                <path d="M210,179 C210,180.656482 201.494039,182 191.000402,182 C180.506766,182 172,180.656482 172,179 C172,177.343518 180.506766,176 191.000402,176 C201.494039,176 210,177.343518 210,179" id="Fill-29" fill="#2A2A2A" opacity="0.126224347"></path>
                <path d="M293.503263,69.3612808 C291.009376,70.6943572 288.132241,69.8671499 286.469121,67.564491 C282.942926,63.0045105 282.263712,51.6550667 282.001073,45.9012033 C281.953464,44.8345831 283.505498,44.6540292 283.714182,45.6880383 C284.398949,49.0764069 285.010717,52.0161745 285.748647,54.8231117 C286.412785,57.2792812 289.023312,66.2234606 291.162516,64.8959519 C293.801609,63.1635889 296.562103,55.2629633 296.137595,56.4305983 C296.708895,54.8589044 298.444222,54.0491956 300.012125,54.622673 C301.580822,55.1961504 302.387784,56.9348766 301.816484,58.507366 C301.391975,59.675001 297.902279,67.1986108 293.503263,69.3612808" id="Fill-30" fill="#EA8F84"></path>
                <path d="M290,17.157462 C290,7.36774232 281.876367,-0.506457722 272.061769,0.0254525259 C263.204907,0.505939426 256.087573,8.03624583 256.000795,16.9879257 C255.945863,22.7754627 258.741049,27.8944962 263.04409,31.0433728 L263.04409,63.4907014 C263.04409,64.8767213 264.15707,66 265.530381,66 L279.968857,66 C281.341372,66 282.454352,64.8767213 282.454352,63.4907014 L282.454352,31.4153885 C287.004191,28.3364156 290,23.1008761 290,17.157462" id="Fill-31" fill="#EFE2C7"></path>
                <path d="M295.671946,85.2358073 C295.73709,85.849577 296.160931,86.3497751 296.745623,86.5438938 C300.495852,87.789959 306.175484,88.4609172 312.315952,88.9941396 C313.202238,89.0706595 313.981559,88.3884247 313.998448,87.4983781 C314.045899,85.0094697 312.991524,80.3772003 312.6843,75.6901589 C312.300671,69.86418 312.061004,63.5025623 311.932324,59.3930442 C311.855115,56.940382 309.847701,55 307.397143,55 L300.55215,55 C298.242337,55 296.320173,56.7672055 296.129565,59.0724664 C295.866575,62.259719 295.483751,66.903265 295.104948,71.4678747 C294.745447,75.8029249 295.403325,82.7179019 295.671946,85.2358073" id="Fill-32" fill="#F1B4A7"></path>
                <path d="M304.479077,134.879013 L304.456387,140.932782 L304.986369,143.88125 C305.077941,144.39116 304.697067,144.863269 304.175998,144.879354 C301.678435,144.95576 295.284607,145.123049 295.113618,144.847988 C294.30973,143.557128 297.943434,143.060087 300.602262,142.039463 C303.260279,141.018035 301.425599,131 301.425599,131 L304.479077,134.879013" id="Fill-33" fill="#EA8F84"></path>
                <path d="M300.602262,142.021041 C300.616038,142.015376 300.629004,142.005665 300.64197,142 C301.27649,142.236309 301.989617,142.374696 302.792695,142.374696 C303.48151,142.374696 304.106306,142.275155 304.669514,142.098732 L304.986369,143.874289 C305.077941,144.387371 304.697067,144.862418 304.175998,144.878603 C301.678435,144.955485 295.284607,145.123815 295.113618,144.847042 C294.30973,143.54815 297.943434,143.048016 300.602262,142.021041" id="Fill-34" fill="#4A4E4F"></path>
                <path d="M295.004042,86.3960424 C294.906251,90.5535764 296.584187,116.926741 299.896055,116.999848 C303.207922,117.072954 306.901176,90.8189848 306.997337,86.6614507 C307.095128,82.5047113 304.487359,79.0750636 301.176307,79.0011624 C297.863624,78.9288506 295.101019,82.239303 295.004042,86.3960424" id="Fill-35" fill="#1A86B5"></path>
                <path d="M304.470236,111.567835 C304.798653,113.859693 304.852439,128.541911 304.324363,136 L301.309119,136 C299.690665,128.765526 297.959752,114.743014 297.637854,112.502881 C297.63378,112.474233 297.63215,112.446381 297.628075,112.417732 C295.826263,104.633372 294.932283,89.4768667 295.003997,86.4067315 C295.100974,82.2439846 297.86359,78.9287478 301.176285,79.0011641 C304.48735,79.0751721 307.095129,82.5097765 306.997337,86.6725234 C306.937032,89.2858785 304.314584,110.483181 304.470236,111.567835" id="Fill-36" fill="#196997"></path>
                <path d="M302.76866,102.548692 C303.506988,104.339941 304.180936,106.158949 304.824731,108 C305.513348,101.211378 306.953331,88.8506155 306.997337,86.8715873 C307.095129,82.6008377 304.48735,79.0771224 301.176285,79.0011943 C297.863591,78.9268991 295.100975,82.3281499 295.003998,86.5988994 C294.990959,87.1744831 295.009703,88.1688958 295.061858,89.4515086 C299.29298,92.5514964 302.334302,97.2663842 302.76866,102.548692" id="Fill-37" fill="#1A4D79"></path>
                <path d="M311.479078,134.879013 L311.456387,140.932782 L311.98637,143.88125 C312.077942,144.39116 311.697068,144.863269 311.175189,144.879354 C308.678435,144.95576 302.284607,145.123049 302.113618,144.847988 C301.30973,143.557128 304.943434,143.060087 307.602262,142.039463 C310.26028,141.018035 308.425599,131 308.425599,131 L311.479078,134.879013" id="Fill-38" fill="#EA8F84"></path>
                <path d="M307.602262,142.021041 C307.616039,142.015376 307.628194,142.005665 307.64197,142 C308.275681,142.236309 308.987997,142.374696 309.792695,142.374696 C310.480701,142.374696 311.105497,142.275155 311.669515,142.098732 L311.98637,143.874289 C312.077942,144.387371 311.697068,144.862418 311.175189,144.878603 C308.678435,144.955485 302.284607,145.123815 302.113618,144.847042 C301.30973,143.54815 304.943434,143.048016 307.602262,142.021041" id="Fill-39" fill="#646869"></path>
                <path d="M302.003942,86.3960425 C301.908617,90.5535766 303.543445,116.926742 306.771794,116.999848 C310.000937,117.072955 312.902002,90.7220394 312.996533,86.5645053 C313.091064,82.4077658 311.248109,79.0750636 308.01976,79.0011624 C304.791411,78.9288506 302.097678,82.239303 302.003942,86.3960425" id="Fill-40" fill="#1A86B5"></path>
                <path d="M312.185546,111.56785 C312.513985,113.859707 312.566959,128.541915 312.038849,136 L309.024219,136 C307.404844,128.765531 305.673816,114.743026 305.352711,112.502895 C305.348637,112.474247 305.347007,112.446395 305.342932,112.417747 C303.541,104.633391 301.930589,89.3798091 302.002308,86.3096757 C302.098476,82.1469313 305.578462,78.9287821 308.890562,79.0011984 C312.202661,79.0752063 314.093426,82.412723 313.996443,86.5754674 C313.935319,89.188821 312.029884,110.483196 312.185546,111.56785" id="Fill-41" fill="#1A86B5"></path>
                <path d="M296.386045,57.5315585 C296.503959,56.0987059 297.703016,55 299.142682,55 L300.713805,55 C301.261946,56.2657793 302.419574,57.2435559 304.216965,57.2435559 C306.017542,57.2435559 307.17517,56.2657793 307.720921,55 L309.155806,55 C310.622559,55 311.82321,56.158375 311.865436,57.623051 C311.974586,61.4378917 312.086923,67.2234019 312.525914,73.870533 C312.921881,79.8867635 314.603748,82.6386997 313.771977,88.7607432 C313.771977,88.7607432 297.968323,89.971627 295.32721,86.9452132 C295.034815,83.8066217 294.804564,76.5763251 295.247538,71.2657805 C295.687325,65.9806947 296.133486,60.5882046 296.386045,57.5315585" id="Fill-42" fill="#B2DFED"></path>
                <path d="M311.371896,59.9284274 C302.905974,71.6848442 287.150305,78.5869151 275.278159,67.1468398 C274.532427,66.4283966 275.42667,65.2204735 276.307412,65.7382704 L276.347121,65.7617331 C281.811056,68.9753101 286.839782,70.3741708 293.119336,67.6864813 C298.366461,65.3830941 303.08784,60.8661253 306.467062,56.329739 L306.529007,56.246406 C308.921861,53.0344472 313.714717,56.6711613 311.371896,59.9284274" id="Fill-43" fill="#F1B4A7"></path>
                <path d="M273.967917,64.3391608 C273.967917,64.3391608 276.626009,64.4129144 276.869015,65.132194 C277.112022,65.8514737 277.124505,66.3735904 275.945258,66.7226418 C274.765178,67.0724235 272.957609,67.0592793 271.874899,66.8606559 C270.792188,66.6620325 269.138579,65.6572317 269.042042,65.4469245 C268.692512,64.6816402 270.609933,65.2220127 271.553664,65.4440036 C272.496563,65.6659945 273.586763,65.8346783 273.580105,65.4060315 C273.573448,64.9773846 271.730926,64.6714169 271.538684,64.182891 C271.345611,63.694365 273.967917,64.3391608 273.967917,64.3391608" id="Fill-44" fill="#F1B4A7"></path>
                <path d="M306.244467,72 L326,180 M296.755533,180 L277,72 M279.330573,80.673351 L307.914913,80.673351 M281.230453,93.7021996 L310.214895,93.7021996 M283.872575,106.730247 L312.597795,106.730247 M286.426947,119.758295 L314.980696,119.758295 M288.478979,132.787143 L317.364401,132.787143 M290.418305,145.582919 L319.704635,145.582919 M293.292277,158.843239 L322.130202,158.843239 M295.268635,171.872087 L324.183843,171.872087" id="Stroke-45" stroke="#3078B0" stroke-width="1.903" stroke-linecap="round"></path>
                <path d="M277.755052,72 L258,180 M287.244948,180 L307,72 M304.670999,80.673351 L276.168304,80.673351 M302.769477,93.7021996 L273.785365,93.7021996 M300.128118,106.730247 L271.40162,106.730247 M297.572898,119.758295 L269.01868,119.758295 M295.520833,132.787143 L266.635741,132.787143 M293.581474,145.582919 L264.295469,145.582919 M290.707456,158.843239 L261.869862,158.843239 M288.73187,171.872087 L259.815381,171.872087" id="Stroke-46" stroke="#FFFFFE" stroke-width="1.903" stroke-linecap="round"></path>
                <path d="M132,177.509262 C129.915175,176.532673 125.909728,172.598866 121.980545,169 L121,171.657576 L127.314397,177.526519 C128.712062,178.120316 130.943969,178.200326 132,177.509262" id="Fill-47" fill="#F1B4A7"></path>
                <path d="M132.72402,177 C131.20202,177.52113 129.338195,177.527544 128,177.202038 C128.024951,177.674262 128.038258,178.937802 128.05406,179.385172 C128.064872,179.699453 128.313549,179.957613 128.637909,179.995294 C128.637909,179.995294 139.016614,180.061037 138.99998,179.701056 C138.88188,177.161951 133.462564,177.413697 132.72402,177" id="Fill-48" fill="#4A4E4F"></path>
                <path d="M104.111958,159.486186 C105.476875,160.886312 117.794573,170.686383 123.971737,175 C124.834167,174.360197 125.3701,173.838486 126,172.962498 C121.690239,168.017975 112.465504,156.832337 110.275585,154.518207 C107.824468,150.934176 89.8360755,140.910052 86.2637203,139.581914 C82.4102592,138.149434 78.3975312,139.452497 77.3017753,142.493787 C76.2060195,145.535077 78.1657979,149.680453 82.0200554,151.112932 C84.5133778,152.040688 103.188211,158.539018 104.111958,159.486186" id="Fill-49" fill="#196997"></path>
                <path d="M87.9985699,140.238042 C87.3407457,139.936551 86.8003902,139.705672 86.4244907,139.570795 C82.5042801,138.165687 78.4220438,139.443851 77.3073073,142.427026 C76.1917607,145.409408 78.1862965,149.475572 82.1065071,150.881472 C83.3800287,151.337676 88.7981665,153.171218 94,155 C90.8583226,150.662495 88.6693561,145.743429 87.9985699,140.238042" id="Fill-50" fill="#1A4D79"></path>
                <path d="M76.9999851,119.057473 C75.9150477,118.506937 71.6920519,116.353952 70.8477705,115.676433 L70.8056755,115.642844 C70.7381648,115.589593 70.6674771,115.537161 70.5944066,115.489644 C69.2100392,114.570447 67.3658044,114.983349 66.4746626,116.41048 C65.5835207,117.83843 65.9838197,119.740726 67.3681872,120.659104 C68.665982,121.521773 69.8224014,122.171437 71.0931919,122.823559 C71.9438273,123.24793 72.8127303,123.632977 73.69037,124 C73.8428649,123.355251 77.0079275,119.061569 76.9999851,119.057473" id="Fill-51" fill="#C7E4E3"></path>
                <path d="M85,140.018769 L71.7939003,152 C70.2002662,151.412693 68.7377791,145.403775 66.1649145,139.932544 C63.3822148,134.017986 60.1178482,127.600719 58.3366343,124.144391 C57.6014166,122.717609 58.1093129,120.954874 59.4819842,120.160951 L67.7569589,115.374641 C69.032661,114.636847 70.6445761,115.018352 71.46802,116.258856 C73.1721354,118.826902 75.5542408,124.790267 78.4609339,129.163347 C81.4097531,133.599875 85,140.018769 85,140.018769" id="Fill-52" fill="#F1B4A7"></path>
                <path d="M67.9361072,115.376564 L65.8098664,116.603276 C65.9547469,117.981092 66.2158502,118.960024 64.6762958,119.847969 C63.1343532,120.737538 62.5659759,119.935707 61.4841483,119.097319 L59.3579075,120.32403 C58.1017457,121.048684 57.6344663,122.656407 58.3079218,123.958671 C60.0640009,127.352844 63.4153577,133.912096 66.262817,139.948167 C68.8396203,145.412315 70.1411567,151.119367 71.90042,152 C77.7935541,147.853552 85.3034591,143.594182 86,139.812498 C86,139.812498 76.8311336,125.999399 71.5246859,116.2312 C70.8376976,114.967118 69.1691836,114.665721 67.9361072,115.376564" id="Fill-53" fill="#74A3D9"></path>
                <path d="M87.0567502,117.755477 C87.0567502,117.755477 87.9916945,120.061582 88.7635404,119.998739 C89.536152,119.9351 90.0430588,119.746571 89.9971156,118.574825 C89.9511724,117.404669 89.350082,115.820068 88.8071865,114.945832 C88.2635252,114.070801 86.7573537,113.003264 86.523809,113.000082 C85.6723282,112.987354 86.8163141,114.46377 87.3370038,115.207546 C87.8576935,115.950527 88.3745546,116.843854 87.9587686,117.003746 C87.5437482,117.162843 86.6501528,115.660971 86.1164459,115.680063 C85.582739,115.698359 87.0567502,117.755477 87.0567502,117.755477" id="Fill-54" fill="#EA8F84"></path>
                <path d="M62,113.924438 L61.8115489,113.956712 C60.3789869,114.207982 58.99729,113.339679 58.7254534,112.018783 L58,108.484866 L60.7834063,108 L62,113.924438" id="Fill-55" fill="#986342"></path>
                <polyline id="Fill-56" fill="#F1B4A7" points="64.7104439 118.004635 61.9489777 119 61 118.674482 61.2048259 113.2241 64.3634187 113 65 116.164395 64.7104439 118.004635"></polyline>
                <path d="M65.3405426,113 L62.08727,113.237654 L62,115.621137 C62.8635932,116.384407 63.8660596,117.204055 65.0225764,116.954257 C65.3891102,116.874461 65.7359135,116.637674 66,116.354917 L65.3405426,113" id="Fill-57" fill="#EA8F84"></path>
                <path d="M65.0004709,114.928756 C62.6334509,115.343777 60.3510273,113.903229 59.903756,111.710215 L59,107.288503 L66.3506606,106 C66.3506606,106 67.0559085,109.452039 66.9964399,111.875448 C66.9520478,113.69378 66.2065957,114.71698 65.0004709,114.928756" id="Fill-58" fill="#F1B4A7"></path>
                <polyline id="Fill-59" fill="#986342" points="59.921273 109 59 109.295005 59.0792853 110 60 109.704995 59.921273 109"></polyline>
                <path d="M60.9570016,111.334966 C61.1083295,112.158919 60.8474689,112.901365 60.3747491,112.993986 C59.9013087,113.085866 59.1806992,112.107051 59.0286507,111.283098 C58.8773227,110.459145 59.3522043,110.101259 59.8249241,110.009379 C60.2983645,109.9175 60.804953,110.511013 60.9570016,111.334966" id="Fill-60" fill="#F1B4A7"></path>
                <path d="M66.9818276,108.230546 C67.0398347,107.609407 66.9586247,106.984954 66.7431697,106.400255 C66.7431697,106.400255 66.3727527,104.286724 65.4694989,104.04241 C64.647455,103.819628 63.4525081,104.531039 62.6685832,104.86397 C62.0943127,105.108285 60.214053,105.327754 60.214053,105.327754 C58.7390146,105.606025 57.7686382,107.026364 58.0479011,108.501363 L58.1564573,109.072811 L59.575146,109.955657 L60.1311857,111 L60.2273118,110.98178 C60.6963409,110.893164 61.0095794,110.45671 60.9524009,109.990441 C60.8562748,109.221057 61.2606674,108.485627 62.0230468,108.341523 L64.2016288,107.929086 C65.527506,107.678146 66.3512072,108.259533 66.539316,109.250871 L66.6304701,110.102246 L66.9818276,108.230546" id="Fill-61" fill="#986342"></path>
                <polyline id="Fill-62" fill="#F6BE28" points="252 42.6112404 131.746837 112 125 100.38876 245.253964 31 252 42.6112404"></polyline>
                <polyline id="Fill-63" fill="#ED9D2D" points="252 42.0808919 131.776022 112 130 108.919108 250.223978 39 252 42.0808919"></polyline>
                <path d="M128,107 L139,100" id="Stroke-64" stroke="#ED9D2D" stroke-width="16.802"></path>
                <path d="M137.615725,140.016845 L111.974496,154.8196 C107.775516,157.243655 102.400822,155.814662 99.9694518,151.628317 L75.1841679,108.950138 C72.7527973,104.764598 74.1852953,99.4060762 78.3842748,96.9820213 L104.025504,82.1800708 C108.224484,79.756821 113.599178,81.1850088 116.030548,85.3705489 L140.815832,128.048728 C143.247203,132.235073 141.814705,137.59279 137.615725,140.016845 Z" id="Stroke-65" stroke="#F6BE28" stroke-width="16.802"></path>
                <path d="M108.639652,83 C107.643281,83 106.633294,83.2572136 105.709007,83.7958302 L78.9239266,99.4084548 C76.1238356,101.040431 75.1683125,104.649485 76.7894178,107.469159 L101.283806,150.056154 C102.369883,151.944537 104.336995,153 106.360173,153 C107.356544,153 108.366531,152.744399 109.290817,152.205782 L136.075898,136.591545 C138.87679,134.959569 139.831512,131.350515 138.210407,128.530841 L113.716018,85.9446524 C112.629141,84.0554628 110.662029,83 108.639652,83 Z M108.640453,87.8701261 C108.779817,87.8701261 109.255576,87.9072165 109.529498,88.3845534 L134.023886,130.971549 C134.200093,131.276335 134.176866,131.564188 134.127208,131.752059 C134.077549,131.940736 133.954204,132.201175 133.65225,132.377757 L106.867169,147.991188 C106.707781,148.083108 106.537982,148.13068 106.360173,148.13068 C106.220809,148.13068 105.744249,148.09359 105.470327,147.615447 L80.9759383,105.029258 C80.693206,104.537407 80.8598018,103.906871 81.3475751,103.623049 L108.132656,88.0096182 C108.291242,87.9168922 108.462644,87.8701261 108.640453,87.8701261 Z" id="Fill-66" fill="#ED9D2D"></path>
                <polyline id="Fill-67" fill="#F6BE28" points="223 59.1854794 232.669112 76 238.526742 72.584272 236.06702 68.3065102 248.682649 60.9516766 251.143175 65.2286282 257 61.8137104 247.331693 45 223 59.1854794"></polyline>
                <polyline id="Fill-68" fill="#ED9D2D" points="250 49.8456983 247.12766 45 223 58.6447943 223.803457 60 250 49.8456983"></polyline>
                <path d="M181.014748,148.178542 C181.131795,150.374633 182.469354,162.498447 183.400075,170.306141 C183.870683,174.255706 183.936875,177.10237 184.30093,176.997178 C185.238916,176.726915 188.169115,151.112598 187.992334,147.805514 C187.816361,144.497622 186.111518,141.900182 184.184691,142.002947 C182.257863,142.106521 180.838775,144.871459 181.014748,148.178542" id="Fill-69" fill="#EA8F84"></path>
                <path d="M185.212835,170.676392 C184.888592,170.692413 183.003151,170.927108 182.655525,171 C181.52691,163.235823 180.188629,150.231446 180.307103,147.950173 C180.320353,147.703462 180.341397,147.461558 180.370236,147.224459 C180.768525,143.965155 180.790349,140.667402 180.068597,137.467372 C178.428676,130.195014 177.158985,122.303476 177.021026,120.148763 C176.749005,115.872177 179.14809,112.229189 182.381166,112.011315 C185.614241,111.793441 188.276774,114.743556 188.793536,118.996111 C190.040624,129.261038 185.231541,170.505778 185.212835,170.676392" id="Fill-70" fill="#5C6C75"></path>
                <path d="M188.347647,137.986255 L188.364794,138 C188.932216,129.954877 189.224501,122.641496 188.793478,119.062022 C188.276719,114.769403 185.614199,111.791495 182.381139,112.011422 C179.14808,112.231349 176.749006,115.908657 177.021026,120.225533 C177.054541,120.749477 177.153528,121.612205 177.307854,122.718308 C182.112237,124.67016 185.547168,129.246582 186.490274,134.655816 C186.717087,135.956781 187.367908,137.141314 188.347647,137.986255" id="Fill-71" fill="#4B585D"></path>
                <path d="M182.546023,171 C182.546023,171 182.738256,176.643682 182.295654,177.718978 C181.852278,178.794273 181.74376,180.010458 183.155277,179.999932 C184.539665,179.991025 187.861111,179.987786 188.340918,179.971592 C189.229996,179.943252 190.017531,179.836371 189.999703,179.220181 C189.981875,178.604801 185.872119,178.415329 185.086909,177.7959 C184.301699,177.174852 184.880724,171.300403 184.880724,171.300403 L182.546023,171" id="Fill-72" fill="#EA8F84"></path>
                <path d="M187.945417,178.406483 C187.162463,178.726928 186.329121,178.911294 185.463995,178.911294 C184.278711,178.911294 183.150017,178.575924 182.138378,178 C181.850778,179.021913 181.932174,180.009587 183.154668,179.99993 C184.539179,179.990273 187.86092,179.986761 188.34077,179.969202 C189.229927,179.938474 190.017533,179.822587 189.999703,179.154481 C189.991176,178.83228 189.027599,178.618064 187.945417,178.406483" id="Fill-73" fill="#3A5264"></path>
                <path d="M188.01487,149.178542 C188.131917,151.374633 189.468671,163.498447 190.399393,171.306141 C190.870002,175.255706 190.936194,178.10237 191.300249,177.997178 C192.239045,177.726915 195.167633,152.112598 194.992467,148.805514 C194.815686,145.497622 193.111648,142.900182 191.184817,143.002947 C189.257986,143.106521 187.838089,145.871459 188.01487,149.178542" id="Fill-74" fill="#EA8F84"></path>
                <path d="M193.212461,170.676396 C192.887427,170.692416 191.002697,170.927109 190.655059,171 C189.526403,163.235917 188.188853,150.2317 188.306552,147.950455 C188.319802,147.703747 188.340848,147.461845 188.370467,147.22475 C188.76877,143.965485 188.789816,140.667772 188.068037,137.467782 C186.428058,130.195512 185.15832,122.304071 185.021136,120.149384 C184.748325,115.87285 187.148277,112.229907 190.380689,112.011234 C193.613882,111.794164 196.27651,114.744243 196.793291,118.996746 C198.041203,129.261547 193.231947,170.505784 193.212461,170.676396" id="Fill-75" fill="#76858E"></path>
                <path d="M190.612093,171 C190.612093,171 190.821322,176.642233 190.33959,177.717253 C189.857013,178.792272 189.676469,180.062382 191.275214,179.997621 C192.781157,179.936909 195.700239,179.843816 196.219093,179.790389 C197.518338,179.659249 199.019218,179.703772 198.999814,179.08855 C198.980409,178.472518 194.232261,178.413425 193.378472,177.794155 C192.523839,177.173267 193.153213,171.300325 193.153213,171.300325 L190.612093,171" id="Fill-76" fill="#EA8F84"></path>
                <path d="M196.077816,178.218249 C195.228976,178.541149 194.325292,178.727197 193.387856,178.727197 C192.247914,178.727197 191.153535,178.46512 190.154504,178 C189.842307,179.039365 189.90559,180.059051 191.274196,179.997333 C192.780337,179.930248 195.699804,179.827385 196.218726,179.768351 C197.518142,179.623448 199.019221,179.672643 198.999814,178.992853 C198.988845,178.61539 197.52658,178.427553 196.077816,178.218249" id="Fill-77" fill="#2A2A2A" opacity="0.126224347"></path>
                <path d="M189.223433,84.9999998 C188.190594,84.9999998 187.07516,84.4788683 185.53758,83.1234213 C184.654911,82.3455126 184,80.9883818 184,80.0715608 L184,75 L191.736288,75 C191.736288,75 192.317782,77.6932143 191.753808,80.3653813 C191.330827,82.3690856 190.034355,85.0008417 189.223433,84.9999998" id="Fill-78" fill="#F1B4A7"></path>
                <path d="M163.002946,83.9704001 C162.963658,83.4771369 163.321964,83.0441257 163.804421,83.0031543 C164.23816,82.9661997 164.623968,83.2578195 164.727688,83.6747635 L164.730831,83.6876173 C165.446659,86.5628437 166.257563,89.4051324 167.29948,92.0730919 C169.429675,97.6114577 171.291926,98.4035709 172.01011,98.8928173 C172.102044,98.9185249 172.459565,99.032602 172.553856,99.0253718 C174.621976,99.5122081 178.231756,94.9009201 178.86115,91.3291803 C178.861936,91.1395873 179.31139,89.8943788 179.260316,90.0430005 C179.795418,88.4748412 181.470658,87.6473801 183.003676,88.1944685 C192.3,91.5075263 166.295279,124.519207 163.002946,83.9704001" id="Fill-79" fill="#F1B4A7"></path>
                <path d="M178.484554,118.542838 C181.194732,121.687025 196.837814,123 196.837814,123 C197.991439,121.644984 192.612655,106.177104 192.612655,106.177104 C192.612655,106.177104 195.203713,95.014391 195.086991,90.9832991 C195.039823,89.3194428 193.692729,88 192.047435,88 L182.12051,88 C180.591138,88 179.316795,89.1803839 179.191279,90.7229678 C178.930654,93.9140468 183.053482,105.828648 183.053482,105.828648 C183.053482,105.828648 176.142129,115.824721 178.484554,118.542838" id="Fill-80" fill="#F1B4A7"></path>
                <path d="M192.674327,106.177104 C192.674327,106.177104 195.217928,94.6885727 195.107576,90.7245848 C195.065012,89.2030214 193.850358,88 192.366131,88 L190.915009,88 C190.362464,89.3145919 189.191162,90.330854 187.370363,90.330854 C185.551929,90.330854 184.381415,89.3145919 183.827293,88 L182.464453,88 C183.945527,91.2517151 183.413476,95.5423298 180.865145,98.046199 C181.947378,101.968954 183.249525,105.828648 183.249525,105.828648 C183.249525,105.828648 176.055399,116.972766 177.104526,118.626112 C179.32259,122.121988 196.840094,123 196.840094,123 C197.977502,121.29572 192.674327,106.177104 192.674327,106.177104" id="Fill-81" fill="#74A3D9"></path>
                <polyline id="Fill-82" fill="#F1B4A7" points="186 88 191 87.5624815 189.418857 83 186.183771 83.3331359 186 88"></polyline>
                <path d="M186.095436,83.3726708 L188.615491,83 L189,84.5925466 C188.435685,85.3544513 187.710927,87 186.793914,87 C186.503458,87 186.237898,86.9006211 186,86.7200828 L186.095436,83.3726708" id="Fill-83" fill="#EA8F84"></path>
                <path d="M185.486471,73.176604 L187.92144,73.0177841 C188.618481,72.9720632 189.281997,72.7394482 189.853509,72.3552324 C190.681538,71.7969564 191.778561,71.8924088 192.414787,72.6720701 C193.104032,73.5150989 193.450993,74.6813823 191.911887,75.8829591 C191.147792,76.480539 189.942393,75.9535457 189.180637,76.2671749 C189.132296,76.2671749 189.089414,76.2623622 189.038734,76.2663728 L186.877436,76.407546 C186.121918,76.4572775 185.64085,77.1414864 185.641629,77.9203456 C185.641629,78.3927947 185.320398,79 185.320398,79 L184.3107,77.7166069 L183.364158,76.9281223 C183.15832,76.7572706 183.032011,76.5054047 183.015637,76.234288 L183.005501,76.0754681 C182.911939,74.5698876 184.022995,73.2720563 185.486471,73.176604" id="Fill-84" fill="#466B7E"></path>
                <path d="M212.710254,79.6227639 C212.710254,79.6227639 211.617657,81.8514868 212.142737,82.4343006 C212.666377,83.0178853 213.118089,83.3062085 213.938795,82.5191015 C214.758782,81.7335364 215.534892,80.2356434 215.831957,79.2388469 C216.129742,78.2412795 215.969341,76.3432802 215.826922,76.1520926 C215.309036,75.455954 214.947235,77.3246584 214.731449,78.2196938 C214.514943,79.1147292 214.187668,80.1038165 213.814358,79.8702285 C213.442487,79.6358695 213.976917,77.9544981 213.632379,77.5366607 C213.28856,77.1180524 212.710254,79.6227639 212.710254,79.6227639" id="Fill-85" fill="#F1B4A7"></path>
                <path d="M163.330569,79.6674361 C163.330569,79.6674361 164.39378,81.9053902 163.840378,82.466977 C163.286977,83.0278009 162.815588,83.300201 161.993983,82.4990241 C161.172378,81.6970842 160.415053,80.1931608 160.135766,79.1974124 C159.856479,78.201664 160.070747,76.3284361 160.221473,76.143784 C160.771919,75.4707954 161.094059,77.3295257 161.292811,78.2215026 C161.491562,79.1142426 161.801881,80.1008347 162.190518,79.8803203 C162.579155,79.6605689 162.074518,77.9811496 162.438773,77.577509 C162.803766,77.1731055 163.330569,79.6674361 163.330569,79.6674361" id="Fill-86" fill="#F1B4A7"></path>
                <path d="M200.099241,96.907586 C202.700297,99.9778945 204.687291,98.3625884 206.948873,94.9831226 C207.903991,93.297479 209.091757,91.8825526 212.27443,82.6176473 L212.279178,82.6061971 C212.629731,81.5846693 214.112657,81.9437171 213.993169,83.0167711 C210.865096,111.218789 196.054033,106.780991 191.633741,94.1472527 C191.322754,93.2132377 191.029176,92.2923088 191.000689,90.8479388 C190.965079,89.0903222 192.315065,87.6353198 194.015603,87.5993333 C195.716141,87.5625288 197.123101,88.9578262 197.15871,90.7154428 C197.18245,91.9103604 198.304536,94.8579874 200.099241,96.907586" id="Fill-87" fill="#F1B4A7"></path>
                <path d="M196.329745,90.8999844 C195.415223,90.2061495 194.999167,89.0752784 195.064776,87.9563699 C195.203194,85.5821785 193.776603,83.4719634 191.946759,81.7939995 C190.677789,80.6304304 190.072108,78.9133883 190.268934,77.206714 L190.523368,75 L183.038367,75 C183.038367,76.8326812 182.186253,78.5752435 180.700454,79.6550739 C179.029831,80.8696838 177.640845,82.6186262 176.803133,84.7711094 C174.76126,90.0195318 176.747926,95.707383 181.230925,97.7761275 C180.049967,102.739041 182.254262,107.74502 186.622046,109.433351 C191.451492,111.299528 197.081846,108.405359 199.196528,102.967927 C200.983968,98.3758561 199.685394,93.4464383 196.329745,90.8999844" id="Fill-88" fill="#466B7E"></path>
                <path d="M68.103626,127.179917 C71.5001665,129.37859 74.7066681,130.034131 78.1571602,130.429445 C84.1087558,131.24162 93.9996297,127.833801 92.9375063,128.197622 C93.8442167,127.886841 94.4328537,129.44489 93.6002262,129.944626 C88.9128716,132.756574 83.1126628,134.906351 78.169239,134.948618 L75.6584725,135 C67.4280221,134.656069 60.5334799,129.857608 57.4960805,124.953067 C56.6264116,123.549993 56.9299905,121.615691 58.173295,120.634452 C61.258204,118.200413 62.0384903,123.283965 68.103626,127.179917" id="Fill-89" fill="#F1B4A7"></path>
                <path d="M89.7729749,128.799692 C82.2642398,130.664619 74.6766094,131.070491 68.1009315,126.949202 C62.0372676,123.17844 61.2571706,118.25824 58.1730102,120.614064 C56.9300074,121.563774 56.6265022,123.435118 57.4959601,124.793908 C60.5326224,129.54085 67.2668959,134.666392 75.4953489,134.998469 C77.072449,134.810773 81.9470487,135.838288 90,132.231158 L89.7729749,128.799692" id="Fill-90" fill="#C7E4E3"></path>
                <path d="M91.4834817,127.099516 C91.4834817,127.099516 91.7566408,129.763727 92.4526644,129.929333 C93.1493976,130.096647 93.6417936,130.052257 93.8808965,128.828137 C94.1199994,127.604017 93.9681655,125.78747 93.6985539,124.72042 C93.4282328,123.65337 92.3547529,122.099744 92.1489966,122.026331 C91.4011792,121.756581 92.0574706,123.626907 92.3391438,124.551399 C92.620817,125.475892 92.8627579,126.553186 92.4583405,126.593307 C92.0546326,126.633428 91.624673,124.813467 91.1493052,124.672616 C90.6746468,124.532619 91.4834817,127.099516 91.4834817,127.099516" id="Fill-91" fill="#F1B4A7"></path>
                <path d="M97.8609017,160.159103 C96.3265228,162.30287 83.8054661,178.721639 83.0378666,177.975331 C82.3719577,177.328111 90.689259,158.594137 92.2236379,156.448798 C93.7580168,154.305031 96.2633763,153.396722 97.8207176,154.42142 C99.3772387,155.446119 99.3952806,158.014549 97.8609017,160.159103" id="Fill-92" fill="#F1B4A7"></path>
                <path d="M84.5175018,181.495774 C83.4378331,179.341088 88.0416183,174.585946 84.8603847,172 L82.7318093,176.831721 L80,181.512702 C81.3475225,182.122914 83.499357,182.206748 84.5175018,181.495774" id="Fill-93" fill="#F1B4A7"></path>
                <path d="M84.7240199,181 C83.2020205,181.52113 81.3373634,181.527544 80,181.202038 C80.0249508,181.67346 80.0374262,182.937802 80.0532284,183.38437 C80.0648721,183.700255 80.3127168,183.957613 80.637909,183.995294 C80.637909,183.995294 91.0166139,184.061037 90.99998,183.701056 C90.8818795,181.161951 85.4617321,181.412895 84.7240199,181" id="Fill-94" fill="#4A4E4F"></path>
                <path d="M98.737063,154.712769 C98.755535,154.690565 98.7707945,154.664396 98.7900697,154.642192 C98.712969,154.560513 98.6495216,154.493108 98.578846,154.416981 C98.4246447,154.171151 98.2302868,153.956249 97.9853315,153.790512 C96.4256495,151.573291 88.6304516,146.844645 82.1829089,143.329286 C81.2946451,142.843972 80.2023858,142.89631 79.3759631,143.47837 C77.4524622,144.834396 75.4333887,146.067508 73.4263622,147.310135 C72.5935144,147.824791 72.0939664,148.751805 72.1839172,149.717676 C72.207208,149.972228 72.2256801,150.228367 72.237727,150.485298 C72.2521834,150.796153 72.0048188,150.704958 72,151.012641 C76.4541693,152.555022 84.8517161,155.633439 89.1372278,157.409754 C90.1604178,157.834801 90.6085654,159.022712 90.1178518,160.006029 C87.2827963,165.689443 82.6856695,175.29106 82.6856695,175.29106 L86.617,176 C86.7093601,175.713728 96.6922892,161.23914 97.7347544,159.738788 C98.9033113,158.057633 99.3233492,156.022008 98.737063,154.712769" id="Fill-95" fill="#1A86B5"></path>
                <path d="M67,141 C69.2603043,146.143114 70.5204382,151.172486 72.1782106,152 C77.4722305,148.285254 84.0458207,144.481493 86,141 L67,141" id="Fill-96" fill="#7DB5E9"></path>
                <polyline id="Fill-97" fill="#C7E4E3" points="61.5801012 117 64.8583474 118.827318 65 121 61 118.627119 61.5801012 117"></polyline>
                <polyline id="Fill-98" fill="#C7E4E3" points="65.4001853 116.37093 65 119.883651 66.8999537 121 67 116 65.4001853 116.37093"></polyline>
            </g>
        </g>
    </g>
</svg>