<?xml version="1.0" encoding="UTF-8" standalone="no"?>
<svg width="161px" height="223px" viewBox="0 0 161 223" version="1.1" xmlns="http://www.w3.org/2000/svg" xmlns:xlink="http://www.w3.org/1999/xlink">
    <!-- Generator: Sketch 49.1 (51147) - http://www.bohemiancoding.com/sketch -->
    <title>Group 11</title>
    <desc>Created with Sketch.</desc>
    <defs></defs>
    <g id="Page-1" stroke="none" stroke-width="1" fill="none" fill-rule="evenodd">
        <g id="Artboard-2" transform="translate(-764.000000, -2417.000000)">
            <g id="Group-11" transform="translate(764.000000, 2417.000000)">
                <path d="M157.533103,11.6459016 C157.698617,11.6459016 157.820652,11.6655738 157.95998,11.6998179 L158,11.3296903 C158,11.3296903 157.61413,11.1540984 157.107213,11.2153005 L157.067194,11.0142077 C157.224802,10.9653916 157.343379,10.7577413 157.343379,10.512204 C157.343379,10.2287796 157.186759,10 156.995059,10 C156.802866,10 156.647233,10.2287796 156.647233,10.512204 C156.647233,10.7577413 156.765316,10.9653916 156.922431,11.0142077 L156.966897,11.2393443 C156.428854,11.3479053 156,11.6575592 156,11.6575592 L156.076087,12 C156.40168,11.8404372 156.684289,11.7428051 156.940217,11.7020036 C157.191206,11.663388 157.379941,11.6459016 157.533103,11.6459016" id="Fill-125" fill="#83A8AD"></path>
                <path d="M128,214 C128,215.656701 106.061902,217 78.9992046,217 C51.937568,217 30,215.656701 30,214 C30,212.342772 51.937568,211 78.9992046,211 C106.061902,211 128,212.342772 128,214" id="Fill-5" fill="#000000" opacity="0.158407183"></path>
                <polygon id="Fill-6" fill="#696C6B" points="75 157 88 157 88 132 75 132"></polygon>
                <path d="M88,132 L88,141 C83.125,140.803348 78.25,140.607243 75,140.4451 L75,132 L88,132" id="Fill-7" fill="#444645"></path>
                <polygon id="Fill-8" fill="#262633" points="57 134 105 134 105 125 57 125"></polygon>
                <polygon id="Fill-9" fill="#262633" points="74 119 88 119 88 94 74 94"></polygon>
                <path d="M42,115.098765 L42,122 L24.4819858,122 C20.8704384,122 17.7203173,120.661691 15.3703843,118.156012 C13.0528138,115.68484 11.9086439,112.13442 11.2018893,107.621012 C10.7467268,104.717185 11.2034552,102.329358 11.2034552,101.833 L11.2034552,79 L16.9451839,79 L16.9451839,102.048531 C16.9451839,104.240469 17.1424906,110.399556 20.0551129,113.494494 C21.2128542,114.724506 22.5919131,115.098765 24.4819858,115.098765 L42,115.098765" id="Fill-10" fill="#696C6B"></path>
                <path d="M17,79 L17,95 C14.8181818,94.7923472 12.6363636,94.5707435 11,94.3571884 L11,79 L17,79" id="Fill-11" fill="#444645"></path>
                <path d="M28,76.7741667 L28,78.2258333 C28,81.41625 25.48,84 22.3683019,84 L5.63169811,84 C2.52,84 0,81.41625 0,78.2258333 L0,76.7741667 C0,73.5945833 2.50415094,71.01625 5.6,71 L22.3683019,71 C22.4633962,71 22.5637736,71 22.6588679,71.0054167 C23.514717,71.0541667 24.3177358,71.2925 25.0309434,71.6825 C25.1207547,71.73125 25.205283,71.78 25.2898113,71.8341667 C26.9169811,72.8470833 28,74.6779167 28,76.7741667" id="Fill-12" fill="#1B29D4"></path>
                <path d="M28,76.33 L28,77 L0,77 L0,76.86 C0,73.92 2.49358491,71.01 5.6,71 L22.5162264,71 C22.5637736,71 22.6113208,71 22.6588679,71.005 C23.4830189,71.025 24.2913208,71.255 25.0309434,71.63 C25.1207547,71.675 25.205283,71.72 25.2898113,71.77 C26.9169811,72.705 28,74.395 28,76.33" id="Fill-13" fill="#2285F7"></path>
                <path d="M120,115.098765 L120,122 L137.054516,122 C140.686375,122 143.85323,120.661691 146.216562,118.156012 C148.54683,115.68484 149.977006,112.13442 150.687633,107.621012 C151.144764,104.717185 150.96527,102.329358 150.96527,101.833 L150.96527,79 L145.192084,79 L145.192084,102.048531 C145.192084,104.240469 144.714484,110.399556 141.785905,113.494494 C140.621296,114.724506 138.955469,115.098765 137.054516,115.098765 L120,115.098765" id="Fill-14" fill="#696C6B"></path>
                <path d="M144,79 L144,95 C146.181818,94.7923472 148.363636,94.5707435 150,94.3571884 L150,79 L144,79" id="Fill-15" fill="#444645"></path>
                <path d="M161,76.77525 C161,73.585375 158.478415,71 155.367245,71 L138.632755,71 C135.521585,71 133,73.585375 133,76.77525 L133,78.22475 C133,81.414625 135.521585,84 138.632755,84 L155.367245,84 C158.478415,84 161,81.414625 161,78.22475 L161,76.77525" id="Fill-16" fill="#1B29D4"></path>
                <path d="M133,76.8585 L133,77 L161,77 L161,76.8585 C161,73.914 158.460981,71 155.35034,71 L138.452075,71 C135.340906,71 133,73.914 133,76.8585" id="Fill-17" fill="#2285F7"></path>
                <path d="M123,102.34914 C123,105.47031 120.480093,108 117.370994,108 L43.6290062,108 C40.5199068,108 38,105.47031 38,102.34914 L38,7.65086 C38,4.52969 40.5199068,2 43.6290062,2 L117.370994,2 C120.480093,2 123,4.52969 123,7.65086 L123,102.34914" id="Fill-18" fill="#1B29D4"></path>
                <path d="M123,7.7584 L123,10 L38,10 L38,7.7584 C38,4.6176 40.3551863,2 43.4642857,2 L117.016739,2 C120.126366,2 123,4.6176 123,7.7584" id="Fill-19" fill="#2285F7"></path>
                <polygon id="Fill-20" fill="#2285F7" points="54 96 107 96 107 2 54 2"></polygon>
                <path d="M134,122.416065 C134,126.052419 131.166872,129 127.672241,129 L33.3277586,129 C29.8331281,129 27,126.052419 27,122.416065 L27,118.583935 C27,114.947581 29.8331281,112 33.3277586,112 L127.672241,112 C131.166872,112 134,114.947581 134,118.583935 L134,122.416065" id="Fill-21" fill="#1B29D4"></path>
                <path d="M134,118.1184 L134,120 L27,120 L27,118.1184 C27,114.581333 29.4968424,112 32.9925271,112 L127.488813,112 C130.984498,112 134,114.581333 134,118.1184" id="Fill-22" fill="#2285F7"></path>
                <path d="M110.294118,204 L114,204 L114,193.115757 C114,190.746542 113.147118,188.681376 111.562588,187.138983 C109.999765,185.619272 107.752412,184.675258 104.899941,184.211352 C103.064471,183.912702 101.550353,184.018013 101.237471,184.018013 L87,184.018013 L87,188.338442 L101.373,188.338442 C102.759,188.338442 106.988471,188.384887 108.943588,190.295597 C109.722353,191.054372 110.294118,191.876334 110.294118,193.115757 L110.294118,204" id="Fill-23" fill="#696C6B"></path>
                <path d="M117,208 C117,208.252996 116.984021,208.504394 116.954192,208.749933 C116.584535,211.709188 114.060322,214 111.000799,214 C107.94021,214 105.415465,211.709188 105.046873,208.749933 C105.016512,208.504394 105,208.252996 105,208 C105,204.686019 107.686671,202 111.000799,202 C114.313329,202 117,204.686019 117,208" id="Fill-24" fill="#262633"></path>
                <path d="M117,208.123777 C117,208.382513 116.984021,208.456437 116.954192,209 L105.046873,209 C105.016512,208.456437 105,208.382513 105,208.123777 C105,204.742274 107.686671,202 111.000799,202 C114.313329,202 117,204.742274 117,208.123777" id="Fill-25" fill="#696C6B"></path>
                <path d="M52.1538462,204 L48,204 L48,193.115757 C48,190.746542 48.6121731,188.681376 50.1657115,187.138983 C51.6984808,185.619272 53.7909808,184.675258 56.5891154,184.211352 C58.3898077,183.912702 59.7616154,184.018013 60.0695192,184.018013 L75,184.018013 L75,188.338442 L59.9360769,188.338442 C58.5767308,188.338442 54.9125192,188.384887 52.9939615,190.295597 C52.2317308,191.054372 52.1538462,191.876334 52.1538462,193.115757 L52.1538462,204" id="Fill-26" fill="#696C6B"></path>
                <path d="M44,208 C44,208.252996 44.0170432,208.504394 44.0468688,208.749933 C44.4159602,211.709188 46.940482,214 50.0002663,214 C53.0605832,214 55.5845724,211.709188 55.9531312,208.749933 C55.9834894,208.504394 56,208.252996 56,208 C56,204.686019 53.313568,202 50.0002663,202 C46.6869646,202 44,204.686019 44,208" id="Fill-27" fill="#262633"></path>
                <path d="M44,208.123777 C44,208.382513 44.0170432,208.456437 44.0468688,209 L55.9531312,209 C55.9834894,208.456437 56,208.382513 56,208.123777 C56,204.742274 53.313568,202 50.0002663,202 C46.6869646,202 44,204.742274 44,208.123777" id="Fill-28" fill="#696C6B"></path>
                <polygon id="Fill-29" fill="#696C6B" points="79 203 85 203 85 186 79 186"></polygon>
                <path d="M87,208 C87,208.252996 86.9840206,208.504394 86.9541924,208.749933 C86.5845355,211.709188 84.0597896,214 80.9997337,214 C77.9396777,214 75.4154645,211.709188 75.0463403,208.749933 C75.0159794,208.504394 75,208.252996 75,208 C75,204.686019 77.6866705,202 80.9997337,202 C84.3133295,202 87,204.686019 87,208" id="Fill-30" fill="#262633"></path>
                <path d="M87,208.123777 C87,208.382513 86.9840206,208.456437 86.9541924,209 L75.0463403,209 C75.0159794,208.456437 75,208.382513 75,208.123777 C75,204.742274 77.6866705,202 80.9997337,202 C84.3133295,202 87,204.742274 87,208.123777" id="Fill-31" fill="#696C6B"></path>
                <polygon id="Fill-32" fill="#262633" points="72 191 89 191 89 152 72 152"></polygon>
                <path d="M45.7417506,44 C45.6868072,44 45.6313455,43.9935844 45.5748472,43.9807532 C45.1762487,43.8855882 44.9269303,43.4749887 45.0191936,43.0638547 C45.9361256,38.9664145 54.0832917,2.95181841 57.823068,0.146590233 C58.1553197,-0.102549529 58.6176732,-0.0260967691 58.85818,0.315000158 C59.0986867,0.656631719 59.02612,1.13459512 58.6949049,1.38266562 C56.2188257,3.24052114 49.8780519,28.1454085 46.4632708,43.4070901 C46.3844841,43.7610183 46.0791857,44 45.7417506,44" id="Fill-33" fill="#262633"></path>
                <path d="M114.217644,34 C113.836338,34 113.502012,33.7306167 113.445745,33.3552723 C109.158513,5.03101041 103.597894,2.48636576 103.542173,2.46422466 C103.12809,2.34666598 102.912308,1.93441984 103.033583,1.53482576 C103.154858,1.13523167 103.607727,0.91487504 104.023449,1.03085221 C104.676804,1.21641569 110.534601,3.69252838 114.991727,33.1375516 C115.054004,33.5492705 114.757918,33.9319952 114.331271,33.9926196 C114.293577,33.9978913 114.255337,34 114.217644,34" id="Fill-34" fill="#262633"></path>
                <path d="M53.6210331,72.6860054 L115.367031,61.3322011 L111.41811,39.3335724 L49.6721121,50.6873766 L53.6210331,72.6860054 Z M122.893049,60.6178907 C123.525045,64.1414668 121.295153,67.4726054 117.814962,68.1128195 L53.7437456,79.8936108 C50.2630283,80.5338248 46.9597964,78.2197789 46.3278005,74.6967359 L42.1034347,51.1618067 C41.4714388,47.6398299 43.8019236,44.5357779 47.2821143,43.896097 L111.353331,32.1147726 C114.834048,31.4750916 118.036161,33.5609847 118.668683,37.0834946 L122.893049,60.6178907 Z" id="Fill-35" fill="#3F3F3F"></path>
                <path d="M52.5765346,69.6657697 L114.817114,58.2209767 L110.868684,36.2226666 L48.6281041,47.6669266 L52.5765346,69.6657697 Z M121.896587,57.8643597 C122.529115,61.3878847 120.193342,64.4631065 116.71312,65.1027782 L52.6413148,76.8839319 C49.1610922,77.5241366 45.9631636,75.4659929 45.3311619,71.943001 L41.107284,48.4094788 C40.4747556,44.8859538 42.6999282,41.5266112 46.1801509,40.8864065 L110.252482,29.1052528 C113.732178,28.4655811 117.04018,30.8078456 117.672709,34.3308376 L121.896587,57.8643597 Z" id="Fill-36" fill="#FFFFFE"></path>
                <path d="M118.949243,58.1679427 C119.228278,59.6815277 118.335473,61.165363 116.796537,61.4404179 L52.3596563,72.9577563 C50.821782,73.2328113 49.5714303,72.1315477 49.291865,70.6184845 L45.0548859,47.6725351 C44.7753207,46.1599939 45.5790045,44.8405653 47.1174093,44.5655104 L111.55376,33.04765 C113.092695,32.773117 114.432699,33.709452 114.711734,35.2225152 L118.949243,58.1679427" id="Fill-37" fill="#1310A2"></path>
                <path d="M108,34 C106.661772,46.4376604 101.197867,50.4915951 99.2220867,65.0768445 L61,72 C62.9978735,56.394187 68.4859762,51.8273483 70.0467162,40.873858 L108,34" id="Fill-38" fill="#2285F7"></path>
                <text id="BECOME-VIP!" font-family="LucidaGrande-Bold, Lucida Grande" font-size="10" font-weight="bold" letter-spacing="-0.361565053" fill="#FFFFFE">
                    <tspan x="50" y="58">BECOME VIP!</tspan>
                </text>
                <path d="M80.1067194,222.216783 L80.0671937,222.014763 C80.2247694,221.965812 80.3428195,221.75913 80.3428195,221.512044 C80.3428195,221.229992 80.1868248,221 79.9949934,221 C79.802635,221 79.6471673,221.229992 79.6471673,221.512044 C79.6471673,221.75913 79.7652174,221.965812 79.9222661,222.014763 L79.9665349,222.239316 C79.4284585,222.348873 79,222.65812 79,222.65812 L79.0758893,223 C79.401054,222.839938 79.683531,222.742813 79.9401845,222.703186 C80.1905138,222.663559 80.3797101,222.645688 80.5335968,222.645688 C80.6985507,222.645688 80.8208169,222.66589 80.9599473,222.700078 L81,222.330225 C81,222.330225 80.6137022,222.1554 80.1067194,222.216783" id="Fill-67" fill="#FFFFFE"></path>
            </g>
        </g>
    </g>
</svg>